<?xml version="1.0" encoding="UTF-8"?>
<svg width="263px" height="29px" viewBox="0 0 263 29" version="1.1" xmlns="http://www.w3.org/2000/svg" xmlns:xlink="http://www.w3.org/1999/xlink">
    <title>Booker&amp;Co Text LogoMd</title>
    <g id="Booker&amp;Co-Text-LogoMd" stroke="none" stroke-width="1" fill="none" fill-rule="evenodd">
        <g id="Group-Copy-3" transform="translate(-3.000000, 3.000000)" fill="#000000" fill-rule="nonzero">
            <path d="M14.23,23.18 C15.61,23.18 16.805,22.99 17.815,22.61 C18.825,22.23 19.655,21.73 20.305,21.11 C20.955,20.49 21.44,19.79 21.76,19.01 C22.08,18.23 22.24,17.44 22.24,16.64 C22.24,15.76 22.07,14.97 21.73,14.27 C21.39,13.57 20.955,12.95 20.425,12.41 C19.895,11.87 19.31,11.415 18.67,11.045 C18.03,10.675 17.4,10.38 16.78,10.16 C17.2,9.84 17.595,9.5 17.965,9.14 C18.335,8.78 18.66,8.39 18.94,7.97 C19.22,7.55 19.44,7.09 19.6,6.59 C19.76,6.09 19.84,5.53 19.84,4.91 C19.84,4.51 19.76,4.05 19.6,3.53 C19.44,3.01 19.13,2.52 18.67,2.06 C18.21,1.6 17.565,1.21 16.735,0.89 C15.905,0.57 14.81,0.41 13.45,0.41 C12.93,0.41 12.375,0.425 11.785,0.455 C11.195,0.485 10.53,0.5 9.79,0.5 C9.63,0.5 9.405,0.495 9.115,0.485 C8.825,0.475 8.495,0.465 8.125,0.455 C7.755,0.445 7.36,0.435 6.94,0.425 C6.52,0.415 6.11,0.41 5.71,0.41 C5.27,0.41 5.05,0.5 5.05,0.68 C5.05,0.86 5.22,0.95 5.56,0.95 C5.78,0.95 6,0.955 6.22,0.965 C6.44,0.975 6.61,1 6.73,1.04 C7.23,1.14 7.56,1.32 7.72,1.58 C7.88,1.84 7.98,2.23 8.02,2.75 C8.04,2.99 8.055,3.245 8.065,3.515 C8.07333333,3.74 8.07819444,4.03097222 8.07958333,4.38791667 L8.08,14.39 C8.08,15.77 8.075,17.02 8.065,18.14 C8.055,19.26 8.01,20.14 7.93,20.78 C7.87,21.22 7.785,21.59 7.675,21.89 C7.565,22.19 7.36,22.37 7.06,22.43 C6.92,22.47 6.76,22.5 6.58,22.52 C6.4,22.54 6.2,22.55 5.98,22.55 C5.66,22.55 5.5,22.63 5.5,22.79 C5.5,22.99 5.7,23.09 6.1,23.09 C6.4,23.09 6.735,23.08 7.105,23.06 C7.475,23.04 7.83,23.03 8.17,23.03 C8.53,23.01 8.86,23 9.16,23 L9.88,23 L9.88,23 C10.1,23 10.415,23.005 10.825,23.015 C11.235,23.025 11.67,23.05 12.13,23.09 C12.57,23.11 12.985,23.13 13.375,23.15 C13.765,23.17 14.05,23.18 14.23,23.18 Z M13.3,10.04 C12.62,10.04 12.15,10.01 11.89,9.95 C11.83,9.93 11.78,9.9 11.74,9.86 C11.7,9.82 11.68,9.74 11.68,9.62 L11.68,2.21 C11.68,1.93 11.77,1.76 11.95,1.7 C12.11,1.66 12.26,1.64 12.4,1.64 L12.94,1.64 L12.94,1.64 C13.58,1.64 14.135,1.79 14.605,2.09 C15.075,2.39 15.465,2.765 15.775,3.215 C16.085,3.665 16.315,4.165 16.465,4.715 C16.615,5.265 16.69,5.79 16.69,6.29 C16.69,7.75 16.28,8.81 15.46,9.47 C15.2,9.69 14.9,9.84 14.56,9.92 C14.22,10 13.8,10.04 13.3,10.04 Z M14.92,21.83 C14.58,21.83 14.23,21.81 13.87,21.77 C13.51,21.73 13.13,21.63 12.73,21.47 C12.49,21.37 12.3,21.255 12.16,21.125 C12.02,20.995 11.915,20.825 11.845,20.615 C11.775,20.405 11.73,20.14 11.71,19.82 C11.69,19.5 11.68,19.09 11.68,18.59 L11.68,11.48 C11.68,11.34 11.74,11.27 11.86,11.27 L12.46,11.27 L12.46,11.27 C12.64,11.27 12.87,11.28 13.15,11.3 C13.73,11.34 14.21,11.415 14.59,11.525 C14.97,11.635 15.32,11.8 15.64,12.02 C16.2,12.42 16.67,12.87 17.05,13.37 C17.43,13.87 17.73,14.385 17.95,14.915 C18.17,15.445 18.325,15.975 18.415,16.505 C18.505,17.035 18.55,17.53 18.55,17.99 C18.55,18.77 18.425,19.41 18.175,19.91 C17.925,20.41 17.615,20.8 17.245,21.08 C16.875,21.36 16.48,21.555 16.06,21.665 C15.64,21.775 15.26,21.83 14.92,21.83 Z M38.81,23.51 C40.71,23.51 42.425,23.19 43.955,22.55 C45.485,21.91 46.79,21.035 47.87,19.925 C48.95,18.815 49.78,17.515 50.36,16.025 C50.94,14.535 51.23,12.93 51.23,11.21 C51.23,9.49 50.95,7.94 50.39,6.56 C49.83,5.18 49.025,4 47.975,3.02 C46.925,2.04 45.65,1.29 44.15,0.77 C42.65,0.25 40.97,-0.01 39.11,-0.01 C36.85,-0.01 34.935,0.36 33.365,1.1 C31.795,1.84 30.52,2.785 29.54,3.935 C28.56,5.085 27.845,6.355 27.395,7.745 C26.945,9.135 26.72,10.47 26.72,11.75 C26.72,13.07 26.945,14.425 27.395,15.815 C27.845,17.205 28.56,18.47 29.54,19.61 C30.52,20.75 31.77,21.685 33.29,22.415 C34.81,23.145 36.65,23.51 38.81,23.51 Z M40.07,22.01 C38.63,22.01 37.34,21.72 36.2,21.14 C35.06,20.56 34.095,19.765 33.305,18.755 C32.515,17.745 31.91,16.56 31.49,15.2 C31.07,13.84 30.86,12.38 30.86,10.82 C30.86,8.96 31.085,7.42 31.535,6.2 C31.985,4.98 32.56,4.02 33.26,3.32 C33.96,2.62 34.75,2.13 35.63,1.85 C36.51,1.57 37.38,1.43 38.24,1.43 C39.46,1.43 40.605,1.68 41.675,2.18 C42.745,2.68 43.68,3.405 44.48,4.355 C45.28,5.305 45.905,6.45 46.355,7.79 C46.805,9.13 47.03,10.64 47.03,12.32 C47.03,13.76 46.905,15 46.655,16.04 C46.405,17.08 46.08,17.96 45.68,18.68 C45.28,19.4 44.83,19.98 44.33,20.42 C43.83,20.86 43.32,21.195 42.8,21.425 C42.28,21.655 41.78,21.81 41.3,21.89 C40.82,21.97 40.41,22.01 40.07,22.01 Z M67.92,23.51 C69.82,23.51 71.535,23.19 73.065,22.55 C74.595,21.91 75.9,21.035 76.98,19.925 C78.06,18.815 78.89,17.515 79.47,16.025 C80.05,14.535 80.34,12.93 80.34,11.21 C80.34,9.49 80.06,7.94 79.5,6.56 C78.94,5.18 78.135,4 77.085,3.02 C76.035,2.04 74.76,1.29 73.26,0.77 C71.76,0.25 70.08,-0.01 68.22,-0.01 C65.96,-0.01 64.045,0.36 62.475,1.1 C60.905,1.84 59.63,2.785 58.65,3.935 C57.67,5.085 56.955,6.355 56.505,7.745 C56.055,9.135 55.83,10.47 55.83,11.75 C55.83,13.07 56.055,14.425 56.505,15.815 C56.955,17.205 57.67,18.47 58.65,19.61 C59.63,20.75 60.88,21.685 62.4,22.415 C63.92,23.145 65.76,23.51 67.92,23.51 Z M69.18,22.01 C67.74,22.01 66.45,21.72 65.31,21.14 C64.17,20.56 63.205,19.765 62.415,18.755 C61.625,17.745 61.02,16.56 60.6,15.2 C60.18,13.84 59.97,12.38 59.97,10.82 C59.97,8.96 60.195,7.42 60.645,6.2 C61.095,4.98 61.67,4.02 62.37,3.32 C63.07,2.62 63.86,2.13 64.74,1.85 C65.62,1.57 66.49,1.43 67.35,1.43 C68.57,1.43 69.715,1.68 70.785,2.18 C71.855,2.68 72.79,3.405 73.59,4.355 C74.39,5.305 75.015,6.45 75.465,7.79 C75.915,9.13 76.14,10.64 76.14,12.32 C76.14,13.76 76.015,15 75.765,16.04 C75.515,17.08 75.19,17.96 74.79,18.68 C74.39,19.4 73.94,19.98 73.44,20.42 C72.94,20.86 72.43,21.195 71.91,21.425 C71.39,21.655 70.89,21.81 70.41,21.89 C69.93,21.97 69.52,22.01 69.18,22.01 Z M87.235,23.075 C87.605,23.065 87.965,23.055 88.315,23.045 C88.665,23.035 88.99,23.025 89.29,23.015 C89.59,23.005 89.83,23 90.01,23 C90.19,23 90.44,23.005 90.76,23.015 C91.08,23.025 91.435,23.035 91.825,23.045 C92.215,23.055 92.625,23.065 93.055,23.075 C93.485,23.085 93.91,23.09 94.33,23.09 C94.71,23.09 94.9,22.99 94.9,22.79 C94.9,22.63 94.77,22.55 94.51,22.55 C94.31,22.55 94.07,22.54 93.79,22.52 C93.51,22.5 93.26,22.47 93.04,22.43 C92.66,22.37 92.395,22.19 92.245,21.89 C92.095,21.59 92,21.23 91.96,20.81 C91.92,20.17 91.895,19.285 91.885,18.155 C91.875,17.025 91.87,15.77 91.87,14.39 L91.87,11.66 L92.02,11.66 L92.35,12.11 L92.4366667,12.2262963 C92.5611111,12.3887654 92.7672222,12.645 93.055,12.995 C93.425,13.445 93.865,13.97 94.375,14.57 C94.885,15.17 95.435,15.81 96.025,16.49 C96.615,17.17 97.185,17.815 97.735,18.425 C98.285,19.035 98.78,19.58 99.22,20.06 C99.66,20.54 99.99,20.88 100.21,21.08 C100.53,21.36 100.83,21.615 101.11,21.845 C101.39,22.075 101.67,22.27 101.95,22.43 C102.23,22.59 102.53,22.72 102.85,22.82 C103.17,22.92 103.53,22.99 103.93,23.03 C104.25,23.07 104.56,23.09 104.86,23.09 L108.61,23.09 C108.89,23.09 109.08,23.065 109.18,23.015 C109.28,22.965 109.33,22.89 109.33,22.79 C109.33,22.63 109.2,22.55 108.94,22.55 C108.76,22.55 108.52,22.52 108.22,22.46 C107.92,22.4 107.54,22.28 107.08,22.1 C106.26,21.78 105.505,21.32 104.815,20.72 C104.125,20.12 103.45,19.5 102.79,18.86 C102.59,18.68 102.28,18.365 101.86,17.915 C101.44,17.465 100.955,16.955 100.405,16.385 C99.855,15.815 99.28,15.205 98.68,14.555 C98.08,13.905 97.515,13.28 96.985,12.68 C96.455,12.08 95.98,11.545 95.56,11.075 C95.14,10.605 94.84,10.25 94.66,10.01 C94.82,9.83 95.075,9.565 95.425,9.215 C95.775,8.865 96.165,8.475 96.595,8.045 C97.025,7.615 97.475,7.165 97.945,6.695 C98.415,6.225 98.86,5.78 99.28,5.36 C99.7,4.94 100.075,4.57 100.405,4.25 C100.735,3.93 100.98,3.69 101.14,3.53 C101.78,2.89 102.365,2.4 102.895,2.06 C103.425,1.72 103.92,1.46 104.38,1.28 C104.66,1.18 104.965,1.1 105.295,1.04 C105.625,0.98 105.9,0.95 106.12,0.95 C106.42,0.95 106.57,0.86 106.57,0.68 C106.57,0.5 106.4,0.41 106.06,0.41 C105.82,0.41 105.55,0.415 105.25,0.425 C105.05,0.431666667 104.843333,0.438333333 104.63,0.445 L104.305,0.455 C103.975,0.465 103.66,0.475 103.36,0.485 C103.06,0.495 102.79,0.5 102.55,0.5 C102.35,0.5 102.105,0.495 101.815,0.485 C101.525,0.475 101.23,0.465 100.93,0.455 C100.63,0.445 100.35,0.435 100.09,0.425 C99.83,0.415 99.62,0.41 99.46,0.41 C99.14,0.41 98.98,0.5 98.98,0.68 C98.98,0.82 99.11,0.92 99.37,0.98 C99.65,1.04 99.79,1.24 99.79,1.58 C99.79,1.84 99.645,2.155 99.355,2.525 C99.065,2.895 98.71,3.33 98.29,3.83 C98.15,4.01 97.92,4.27 97.6,4.61 C97.28,4.95 96.915,5.33 96.505,5.75 C96.095,6.17 95.665,6.615 95.215,7.085 C94.765,7.555 94.33,8.01 93.91,8.45 C93.49,8.89 93.11,9.285 92.77,9.635 C92.43,9.985 92.18,10.25 92.02,10.43 L91.87,10.43 L91.87,4.61 L91.87,4.61 C91.87,4.15 91.875,3.785 91.885,3.515 C91.895,3.245 91.91,2.99 91.93,2.75 C91.97,2.23 92.065,1.835 92.215,1.565 C92.365,1.295 92.64,1.12 93.04,1.04 C93.22,1 93.365,0.975 93.475,0.965 C93.585,0.955 93.72,0.95 93.88,0.95 C94.16,0.95 94.3,0.86 94.3,0.68 C94.3,0.5 94.09,0.41 93.67,0.41 C93.41,0.41 93.11,0.415 92.77,0.425 C92.43,0.435 92.085,0.445 91.735,0.455 C91.385,0.465 91.06,0.475 90.76,0.485 C90.52,0.493 90.3184,0.4978 90.1552,0.4994 L90.04,0.5 C89.86,0.5 89.615,0.495 89.305,0.485 C88.995,0.475 88.65,0.465 88.27,0.455 C87.89,0.445 87.49,0.435 87.07,0.425 C86.65,0.415 86.24,0.41 85.84,0.41 C85.4,0.41 85.18,0.5 85.18,0.68 C85.18,0.86 85.35,0.95 85.69,0.95 C85.91,0.95 86.13,0.955 86.35,0.965 C86.57,0.975 86.74,1 86.86,1.04 C87.36,1.14 87.69,1.32 87.85,1.58 C88.01,1.84 88.11,2.23 88.15,2.75 C88.17,2.99 88.185,3.245 88.195,3.515 C88.2033333,3.74 88.2081944,4.03097222 88.2095833,4.38791667 L88.21,14.39 C88.21,15.77 88.205,17.02 88.195,18.14 C88.185,19.26 88.14,20.14 88.06,20.78 C88,21.22 87.915,21.59 87.805,21.89 C87.695,22.19 87.49,22.37 87.19,22.43 C87.05,22.47 86.89,22.5 86.71,22.52 C86.53,22.54 86.33,22.55 86.11,22.55 C85.79,22.55 85.63,22.63 85.63,22.79 C85.63,22.99 85.83,23.09 86.23,23.09 C86.53,23.09 86.865,23.085 87.235,23.075 Z M123.365,23.165 C123.555,23.155 123.71,23.125 123.83,23.075 C123.95,23.025 124.04,22.95 124.1,22.85 C124.16,22.75 124.22,22.6 124.28,22.4 C124.32,22.26 124.36,22.035 124.4,21.725 C124.44,21.415 124.48,21.095 124.52,20.765 C124.56,20.435 124.595,20.115 124.625,19.805 C124.655,19.495 124.67,19.25 124.67,19.07 C124.67,18.91 124.66,18.78 124.64,18.68 C124.62,18.58 124.55,18.53 124.43,18.53 C124.27,18.53 124.16,18.68 124.1,18.98 C124,19.6 123.85,20.08 123.65,20.42 C123.45,20.76 123.15,21.02 122.75,21.2 C122.35,21.38 121.88,21.485 121.34,21.515 C120.8,21.545 120.33,21.56 119.93,21.56 C119.17,21.56 118.555,21.525 118.085,21.455 C117.615,21.385 117.255,21.26 117.005,21.08 C116.755,20.9 116.585,20.645 116.495,20.315 C116.405,19.985 116.35,19.56 116.33,19.04 L116.33,12.02 C116.33,11.82 116.39,11.72 116.51,11.72 L117.38,11.72 L117.38,11.72 C117.8,11.72 118.235,11.725 118.685,11.735 C119.135,11.745 119.56,11.755 119.96,11.765 C120.36,11.775 120.63,11.79 120.77,11.81 C121.33,11.87 121.73,12.005 121.97,12.215 C122.21,12.425 122.37,12.68 122.45,12.98 C122.49,13.18 122.515,13.37 122.525,13.55 C122.535,13.73 122.55,13.9 122.57,14.06 C122.57,14.24 122.66,14.33 122.84,14.33 C122.98,14.33 123.06,14.265 123.08,14.135 C123.1,14.005 123.11,13.88 123.11,13.76 C123.11,13.7 123.115,13.59 123.125,13.43 C123.135,13.27 123.145,13.09 123.155,12.89 C123.165,12.69 123.18,12.49 123.2,12.29 C123.22,12.09 123.23,11.91 123.23,11.75 C123.29,10.99 123.345,10.46 123.395,10.16 C123.445,9.86 123.47,9.66 123.47,9.56 C123.47,9.4 123.4,9.32 123.26,9.32 C123.16,9.32 123,9.45 122.78,9.71 C122.64,9.87 122.455,9.975 122.225,10.025 C121.995,10.075 121.7,10.12 121.34,10.16 C121.16,10.18 120.84,10.195 120.38,10.205 C119.92,10.215 119.43,10.22 118.91,10.22 L116.54,10.22 L116.54,10.22 C116.4,10.22 116.33,10.11 116.33,9.89 L116.33,2.3 C116.33,2.1 116.4,2 116.54,2 C116.68,2 116.96,2.005 117.38,2.015 C117.8,2.025 118.24,2.035 118.7,2.045 C119.16,2.055 119.595,2.065 120.005,2.075 C120.415,2.085 120.68,2.1 120.8,2.12 C121.54,2.22 122.035,2.36 122.285,2.54 C122.535,2.72 122.71,2.94 122.81,3.2 C122.89,3.38 122.94,3.58 122.96,3.8 C122.98,4.02 122.99,4.18 122.99,4.28 C122.99,4.56 123.08,4.7 123.26,4.7 C123.36,4.7 123.43,4.665 123.47,4.595 C123.51,4.525 123.54,4.45 123.56,4.37 C123.58,4.29 123.595,4.155 123.605,3.965 C123.615,3.775 123.63,3.575 123.65,3.365 C123.67,3.155 123.685,2.96 123.695,2.78 C123.705,2.6 123.71,2.47 123.71,2.39 C123.75,1.69 123.8,1.215 123.86,0.965 C123.92,0.715 123.95,0.54 123.95,0.44 C123.95,0.26 123.89,0.17 123.77,0.17 C123.69,0.17 123.61,0.185 123.53,0.215 C123.45,0.245 123.37,0.27 123.29,0.29 C123.17,0.33 122.995,0.36 122.765,0.38 C122.535,0.4 122.28,0.43 122,0.47 C121.9,0.47 121.67,0.475 121.31,0.485 C121.022,0.493 120.6892,0.4978 120.3116,0.4994 L114.5,0.5 C114.28,0.5 114.01,0.495 113.69,0.485 C113.37,0.475 113.01,0.46 112.61,0.44 C112.23,0.44 111.83,0.435 111.41,0.425 C110.99,0.415 110.58,0.41 110.18,0.41 C109.74,0.41 109.52,0.5 109.52,0.68 C109.52,0.86 109.69,0.95 110.03,0.95 C110.25,0.95 110.47,0.955 110.69,0.965 C110.91,0.975 111.08,1 111.2,1.04 C111.7,1.14 112.03,1.32 112.19,1.58 C112.35,1.84 112.45,2.23 112.49,2.75 C112.51,2.99 112.525,3.245 112.535,3.515 C112.543333,3.74 112.548194,4.03097222 112.549583,4.38791667 L112.55,14.39 C112.55,15.77 112.545,17.02 112.535,18.14 C112.525,19.26 112.48,20.14 112.4,20.78 C112.34,21.22 112.255,21.59 112.145,21.89 C112.035,22.19 111.83,22.37 111.53,22.43 C111.39,22.47 111.23,22.5 111.05,22.52 C110.87,22.54 110.67,22.55 110.45,22.55 C110.13,22.55 109.97,22.63 109.97,22.79 C109.97,22.99 110.17,23.09 110.57,23.09 C110.87,23.09 111.205,23.08 111.575,23.06 C111.945,23.04 112.3,23.03 112.64,23.03 C113,23.01 113.33,23 113.63,23 L114.35,23 L114.35,23 C114.81,23 115.285,23.005 115.775,23.015 C116.265,23.025 116.83,23.05 117.47,23.09 C118.11,23.11 118.85,23.13 119.69,23.15 C120.41,23.1671429 121.240204,23.1769388 122.180612,23.1793878 L122.66,23.18 C122.94,23.18 123.175,23.175 123.365,23.165 Z M131.835,23.075 C132.205,23.065 132.56,23.055 132.9,23.045 C133.24,23.035 133.555,23.025 133.845,23.015 C134.135,23.005 134.35,23 134.49,23 C134.61,23 134.825,23.005 135.135,23.015 C135.445,23.025 135.805,23.035 136.215,23.045 C136.625,23.055 137.065,23.065 137.535,23.075 C138.005,23.085 138.46,23.09 138.9,23.09 C139.3,23.09 139.5,22.99 139.5,22.79 C139.5,22.63 139.38,22.55 139.14,22.55 C138.96,22.55 138.725,22.54 138.435,22.52 C138.145,22.5 137.89,22.47 137.67,22.43 C137.21,22.37 136.91,22.19 136.77,21.89 C136.63,21.59 136.54,21.22 136.5,20.78 C136.42,20.14 136.375,19.26 136.365,18.14 C136.355,17.02 136.35,15.76 136.35,14.36 L136.35,13.94 C136.35,13.78 136.43,13.7 136.59,13.7 L139.2,13.76 C139.44,13.76 139.62,13.83 139.74,13.97 C139.84,14.09 139.995,14.295 140.205,14.585 C140.415,14.875 140.655,15.21 140.925,15.59 C141.195,15.97 141.485,16.38 141.795,16.82 C142.105,17.26 142.41,17.69 142.71,18.11 C143.55,19.27 144.285,20.21 144.915,20.93 C145.545,21.65 146.18,22.18 146.82,22.52 C147.2,22.74 147.62,22.89 148.08,22.97 C148.54,23.05 149.19,23.09 150.03,23.09 L152.88,23.09 C153.26,23.09 153.45,22.99 153.45,22.79 C153.45,22.63 153.33,22.55 153.09,22.55 C152.85,22.55 152.57,22.52 152.25,22.46 C152.13,22.44 151.97,22.405 151.77,22.355 C151.57,22.305 151.325,22.21 151.035,22.07 C150.745,21.93 150.42,21.73 150.06,21.47 C149.7,21.21 149.31,20.86 148.89,20.42 C147.99,19.48 147.015,18.355 145.965,17.045 C144.915,15.735 143.72,14.23 142.38,12.53 C143.14,11.91 143.775,11.315 144.285,10.745 C144.795,10.175 145.2,9.62 145.5,9.08 C145.8,8.54 146.015,8 146.145,7.46 C146.275,6.92 146.34,6.37 146.34,5.81 C146.34,5.31 146.275,4.84 146.145,4.4 C146.015,3.96 145.845,3.565 145.635,3.215 C145.425,2.865 145.2,2.56 144.96,2.3 C144.72,2.04 144.5,1.84 144.3,1.7 C143.48,1.14 142.595,0.785 141.645,0.635 C140.695,0.485 139.74,0.41 138.78,0.41 C138.54,0.41 138.235,0.415 137.865,0.425 C137.495,0.435 137.105,0.445 136.695,0.455 C136.285,0.465 135.89,0.475 135.51,0.485 C135.206,0.493 134.9404,0.4978 134.7132,0.4994 L134.55,0.5 C134.39,0.5 134.16,0.495 133.86,0.485 C133.56,0.475 133.225,0.465 132.855,0.455 C132.485,0.445 132.09,0.435 131.67,0.425 C131.25,0.415 130.84,0.41 130.44,0.41 C130,0.41 129.78,0.5 129.78,0.68 C129.78,0.86 129.95,0.95 130.29,0.95 C130.51,0.95 130.73,0.955 130.95,0.965 C131.17,0.975 131.34,1 131.46,1.04 C131.96,1.14 132.29,1.32 132.45,1.58 C132.61,1.84 132.71,2.23 132.75,2.75 C132.77,2.99 132.785,3.245 132.795,3.515 C132.803333,3.74 132.808194,4.03097222 132.809583,4.38791667 L132.81,14.39 C132.81,15.77 132.805,17.02 132.795,18.14 C132.785,19.26 132.74,20.14 132.66,20.78 C132.6,21.22 132.515,21.59 132.405,21.89 C132.295,22.19 132.09,22.37 131.79,22.43 C131.65,22.47 131.49,22.5 131.31,22.52 C131.13,22.54 130.93,22.55 130.71,22.55 C130.39,22.55 130.23,22.63 130.23,22.79 C130.23,22.99 130.43,23.09 130.83,23.09 C131.13,23.09 131.465,23.085 131.835,23.075 Z M138.9,12.32 C138.52,12.32 138.125,12.295 137.715,12.245 C137.305,12.195 136.94,12.12 136.62,12.02 C136.44,11.94 136.35,11.76 136.35,11.48 L136.35,2.36 C136.35,2.14 136.44,2 136.62,1.94 C136.88,1.86 137.41,1.82 138.21,1.82 C138.65,1.82 139.135,1.905 139.665,2.075 C140.195,2.245 140.695,2.54 141.165,2.96 C141.635,3.38 142.025,3.945 142.335,4.655 C142.645,5.365 142.8,6.25 142.8,7.31 C142.8,8.55 142.62,9.525 142.26,10.235 C141.9,10.945 141.49,11.47 141.03,11.81 C140.89,11.91 140.76,11.99 140.64,12.05 C140.52,12.11 140.38,12.16 140.22,12.2 C140.06,12.24 139.875,12.27 139.665,12.29 C139.455,12.31 139.2,12.32 138.9,12.32 Z" id="BOOKER"></path>
            <path d="M177.48,23.51 C178.5,23.51 179.4,23.41 180.18,23.21 C180.96,23.01 181.635,22.77 182.205,22.49 C182.775,22.21 183.255,21.91 183.645,21.59 C184.035,21.27 184.35,21 184.59,20.78 C185.23,21.28 185.8,21.68 186.3,21.98 C186.8,22.28 187.305,22.515 187.815,22.685 C188.325,22.855 188.88,22.965 189.48,23.015 C190.08,23.065 190.81,23.09 191.67,23.09 L193.98,23.09 C194.32,23.09 194.555,23.07 194.685,23.03 C194.815,22.99 194.88,22.92 194.88,22.82 C194.88,22.7 194.845,22.625 194.775,22.595 C194.705,22.565 194.6,22.55 194.46,22.55 C194.3,22.55 194.09,22.52 193.83,22.46 C193.57,22.4 193.29,22.325 192.99,22.235 C192.69,22.145 192.385,22.035 192.075,21.905 C191.765,21.775 191.49,21.64 191.25,21.5 C190.85,21.26 190.31,20.92 189.63,20.48 C188.95,20.04 188.1,19.4 187.08,18.56 C187.5,18.06 187.89,17.515 188.25,16.925 C188.61,16.335 188.92,15.73 189.18,15.11 C189.44,14.49 189.645,13.87 189.795,13.25 C189.945,12.63 190.02,12.03 190.02,11.45 C190.02,11.27 189.92,11.135 189.72,11.045 C189.52,10.955 189.28,10.89 189,10.85 C188.16,10.75 187.44,10.69 186.84,10.67 C186.24,10.65 185.76,10.64 185.4,10.64 C185.28,10.64 185.17,10.66 185.07,10.7 C184.97,10.74 184.92,10.82 184.92,10.94 C184.92,11.04 184.955,11.105 185.025,11.135 C185.095,11.165 185.18,11.18 185.28,11.18 C185.5,11.18 185.75,11.21 186.03,11.27 C186.31,11.33 186.55,11.45 186.75,11.63 C186.97,11.83 187.12,12.055 187.2,12.305 C187.28,12.555 187.32,12.79 187.32,13.01 C187.32,13.47 187.275,13.93 187.185,14.39 C187.095,14.85 186.975,15.285 186.825,15.695 C186.675,16.105 186.515,16.48 186.345,16.82 C186.175,17.16 186.02,17.43 185.88,17.63 C185.78,17.55 185.605,17.395 185.355,17.165 C185.105,16.935 184.815,16.67 184.485,16.37 C184.155,16.07 183.795,15.74 183.405,15.38 C183.015,15.02 182.645,14.67 182.295,14.33 C181.945,13.99 181.615,13.67 181.305,13.37 C180.995,13.07 180.76,12.82 180.6,12.62 C180,11.96 179.405,11.31 178.815,10.67 C178.225,10.03 177.69,9.385 177.21,8.735 C176.73,8.085 176.345,7.43 176.055,6.77 C175.765,6.11 175.62,5.43 175.62,4.73 C175.62,4.09 175.73,3.555 175.95,3.125 C176.17,2.695 176.44,2.345 176.76,2.075 C177.08,1.805 177.425,1.61 177.795,1.49 C178.165,1.37 178.51,1.31 178.83,1.31 C179.67,1.31 180.36,1.445 180.9,1.715 C181.44,1.985 181.86,2.3 182.16,2.66 C182.5,3.06 182.73,3.48 182.85,3.92 C182.97,4.36 183.03,4.78 183.03,5.18 C183.03,5.4 183.04,5.55 183.06,5.63 C183.08,5.71 183.14,5.75 183.24,5.75 C183.34,5.75 183.415,5.72 183.465,5.66 C183.515,5.6 183.56,5.46 183.6,5.24 C183.62,5.12 183.65,4.9 183.69,4.58 C183.73,4.26 183.765,3.905 183.795,3.515 C183.825,3.125 183.855,2.735 183.885,2.345 C183.915,1.955 183.93,1.64 183.93,1.4 C183.93,1.22 183.91,1.07 183.87,0.95 C183.83,0.83 183.68,0.72 183.42,0.62 C183.02,0.46 182.5,0.315 181.86,0.185 C181.22,0.055 180.53,-0.01 179.79,-0.01 C178.49,-0.01 177.375,0.165 176.445,0.515 C175.515,0.865 174.76,1.31 174.18,1.85 C173.6,2.39 173.175,2.985 172.905,3.635 C172.635,4.285 172.5,4.91 172.5,5.51 C172.52,6.19 172.62,6.86 172.8,7.52 C172.98,8.18 173.39,8.93 174.03,9.77 C173.57,9.99 173.06,10.32 172.5,10.76 C171.94,11.2 171.41,11.725 170.91,12.335 C170.41,12.945 169.99,13.635 169.65,14.405 C169.31,15.175 169.14,16 169.14,16.88 C169.14,17.54 169.275,18.255 169.545,19.025 C169.815,19.795 170.27,20.51 170.91,21.17 C171.55,21.83 172.405,22.385 173.475,22.835 C174.545,23.285 175.88,23.51 177.48,23.51 Z M178.5,21.62 C177.72,21.62 176.98,21.475 176.28,21.185 C175.58,20.895 174.97,20.485 174.45,19.955 C173.93,19.425 173.515,18.78 173.205,18.02 C172.895,17.26 172.74,16.41 172.74,15.47 C172.74,14.27 172.955,13.305 173.385,12.575 C173.815,11.845 174.29,11.29 174.81,10.91 C174.93,11.09 175.13,11.35 175.41,11.69 C175.69,12.03 175.99,12.385 176.31,12.755 C176.63,13.125 176.945,13.485 177.255,13.835 C177.565,14.185 177.82,14.46 178.02,14.66 C178.22,14.88 178.53,15.2 178.95,15.62 C179.37,16.04 179.84,16.5 180.36,17 C180.88,17.5 181.41,18 181.95,18.5 C182.49,19 182.98,19.44 183.42,19.82 C183.26,19.98 183.025,20.16 182.715,20.36 C182.405,20.56 182.03,20.755 181.59,20.945 C181.15,21.135 180.67,21.295 180.15,21.425 C179.63,21.555 179.08,21.62 178.5,21.62 Z" id="&amp;"></path>
            <path d="M224.455,23.51 C224.935,23.51 225.43,23.495 225.94,23.465 C226.45,23.435 226.945,23.395 227.425,23.345 C227.905,23.295 228.355,23.225 228.775,23.135 C229.195,23.045 229.555,22.94 229.855,22.82 C230.115,22.72 230.29,22.615 230.38,22.505 C230.47,22.395 230.555,22.21 230.635,21.95 C230.715,21.69 230.795,21.355 230.875,20.945 C230.955,20.535 231.025,20.125 231.085,19.715 C231.145,19.305 231.195,18.935 231.235,18.605 C231.275,18.275 231.295,18.06 231.295,17.96 C231.295,17.84 231.275,17.735 231.235,17.645 C231.195,17.555 231.125,17.51 231.025,17.51 C230.905,17.51 230.82,17.55 230.77,17.63 C230.72,17.71 230.675,17.87 230.635,18.11 C230.575,18.39 230.455,18.72 230.275,19.1 C230.095,19.48 229.875,19.81 229.615,20.09 C229.015,20.79 228.285,21.245 227.425,21.455 C226.565,21.665 225.465,21.77 224.125,21.77 C223.125,21.77 222.07,21.55 220.96,21.11 C219.85,20.67 218.83,20.005 217.9,19.115 C216.97,18.225 216.2,17.11 215.59,15.77 C214.98,14.43 214.675,12.87 214.675,11.09 C214.675,9.63 214.86,8.225 215.23,6.875 C215.6,5.525 216.335,4.34 217.435,3.32 C218.095,2.72 218.87,2.26 219.76,1.94 C220.65,1.62 221.755,1.46 223.075,1.46 C224.455,1.46 225.69,1.64 226.78,2 C227.87,2.36 228.665,2.8 229.165,3.32 C229.545,3.72 229.83,4.165 230.02,4.655 C230.21,5.145 230.315,5.62 230.335,6.08 C230.335,6.52 230.435,6.74 230.635,6.74 C230.775,6.74 230.865,6.68 230.905,6.56 C230.945,6.44 230.975,6.27 230.995,6.05 C231.015,5.91 231.025,5.71 231.025,5.45 C231.025,5.17 231.03,4.88 231.04,4.58 C231.05,4.28 231.055,3.97 231.055,3.65 C231.055,3.33 231.065,3.05 231.085,2.81 C231.125,2.29 231.16,1.915 231.19,1.685 C231.22,1.455 231.235,1.28 231.235,1.16 C231.235,0.94 231.085,0.82 230.785,0.8 C230.325,0.76 229.855,0.685 229.375,0.575 C228.895,0.465 228.365,0.37 227.785,0.29 C227.085,0.19 226.42,0.115 225.79,0.065 C225.16,0.015 224.375,-0.01 223.435,-0.01 C221.195,-0.01 219.325,0.27 217.825,0.83 C216.325,1.39 215.035,2.17 213.955,3.17 C213.235,3.83 212.645,4.535 212.185,5.285 C211.725,6.035 211.37,6.775 211.12,7.505 C210.87,8.235 210.695,8.94 210.595,9.62 C210.495,10.3 210.445,10.89 210.445,11.39 C210.445,12.11 210.5,12.855 210.61,13.625 C210.72,14.395 210.915,15.165 211.195,15.935 C211.475,16.705 211.855,17.455 212.335,18.185 C212.815,18.915 213.425,19.6 214.165,20.24 C215.545,21.44 217.09,22.285 218.8,22.775 C220.51,23.265 222.395,23.51 224.455,23.51 Z M246.335,23.42 C248.035,23.42 249.57,23.15 250.94,22.61 C252.31,22.07 253.475,21.33 254.435,20.39 C255.395,19.45 256.13,18.345 256.64,17.075 C257.15,15.805 257.405,14.44 257.405,12.98 C257.405,11.52 257.155,10.2 256.655,9.02 C256.155,7.84 255.44,6.84 254.51,6.02 C253.58,5.2 252.445,4.565 251.105,4.115 C249.765,3.665 248.265,3.44 246.605,3.44 C244.605,3.44 242.905,3.755 241.505,4.385 C240.105,5.015 238.96,5.82 238.07,6.8 C237.18,7.78 236.535,8.86 236.135,10.04 C235.735,11.22 235.535,12.35 235.535,13.43 C235.535,14.57 235.735,15.73 236.135,16.91 C236.535,18.09 237.17,19.16 238.04,20.12 C238.91,21.08 240.03,21.87 241.4,22.49 C242.77,23.11 244.415,23.42 246.335,23.42 Z M247.415,22.04 C246.175,22.04 245.06,21.795 244.07,21.305 C243.08,20.815 242.24,20.15 241.55,19.31 C240.86,18.47 240.335,17.48 239.975,16.34 C239.615,15.2 239.435,13.97 239.435,12.65 C239.435,11.07 239.63,9.775 240.02,8.765 C240.41,7.755 240.91,6.955 241.52,6.365 C242.13,5.775 242.815,5.365 243.575,5.135 C244.335,4.905 245.085,4.79 245.825,4.79 C246.885,4.79 247.88,5 248.81,5.42 C249.74,5.84 250.55,6.445 251.24,7.235 C251.93,8.025 252.475,8.985 252.875,10.115 C253.275,11.245 253.475,12.51 253.475,13.91 C253.475,15.73 253.245,17.175 252.785,18.245 C252.325,19.315 251.775,20.13 251.135,20.69 C250.495,21.25 249.83,21.615 249.14,21.785 C248.45,21.955 247.875,22.04 247.415,22.04 Z" id="Co"></path>
        </g>
    </g>
</svg>