<?xml version="1.0" encoding="UTF-8"?>
<svg width="32px" height="32px" viewBox="0 0 32 32" version="1.1" xmlns="http://www.w3.org/2000/svg" xmlns:xlink="http://www.w3.org/1999/xlink">
    <title>logosafari-pinned-tab</title>
    <defs>
        <path d="M9.68355705,23.716573 C10.833557,23.716573 11.8293904,23.5582397 12.671057,23.241573 C13.5127237,22.9249064 14.2043904,22.5082397 14.746057,21.991573 C15.2877237,21.4749064 15.6918904,20.891573 15.958557,20.241573 C16.2252237,19.591573 16.358557,18.9332397 16.358557,18.266573 C16.358557,17.5332397 16.2168904,16.8749064 15.933557,16.291573 C15.6502237,15.7082397 15.2877237,15.191573 14.846057,14.741573 C14.4043904,14.291573 13.9168904,13.9124064 13.383557,13.604073 C12.8502237,13.2957397 12.3252237,13.0499064 11.808557,12.866573 C12.158557,12.5999064 12.4877237,12.316573 12.796057,12.016573 C13.1043904,11.716573 13.3752237,11.391573 13.608557,11.041573 C13.8418904,10.691573 14.0252237,10.3082397 14.158557,9.89157303 C14.2918904,9.47490637 14.358557,9.0082397 14.358557,8.49157303 C14.358557,8.1582397 14.2918904,7.77490637 14.158557,7.34157303 C14.0252237,6.9082397 13.7668904,6.49990637 13.383557,6.11657303 C13.0002237,5.7332397 12.4627237,5.4082397 11.771057,5.14157303 C11.0793904,4.87490637 10.1668904,4.74157303 9.03355705,4.74157303 C8.60022371,4.74157303 8.13772371,4.75407303 7.64605705,4.77907303 C7.15439038,4.80407303 6.60022371,4.81657303 5.98355705,4.81657303 C5.85022371,4.81657303 5.66272371,4.81240637 5.42105705,4.80407303 C5.17939038,4.7957397 4.90439038,4.78740637 4.59605705,4.77907303 C4.28772371,4.7707397 3.95855705,4.76240637 3.60855705,4.75407303 C3.25855705,4.7457397 2.91689038,4.74157303 2.58355705,4.74157303 C2.21689038,4.74157303 2.03355705,4.81657303 2.03355705,4.96657303 C2.03355705,5.11657303 2.17522371,5.19157303 2.45855705,5.19157303 C2.64189038,5.19157303 2.82522371,5.1957397 3.00855705,5.20407303 C3.19189038,5.21240637 3.33355705,5.2332397 3.43355705,5.26657303 C3.85022371,5.34990637 4.12522371,5.49990637 4.25855705,5.71657303 C4.39189038,5.9332397 4.47522371,6.2582397 4.50855705,6.69157303 C4.52522371,6.89157303 4.53772371,7.10407303 4.54605705,7.32907303 C4.55439038,7.55407303 4.55855705,7.8582397 4.55855705,8.24157303 L4.55855705,16.391573 C4.55855705,17.541573 4.55439038,18.5832397 4.54605705,19.516573 C4.53772371,20.4499064 4.50022371,21.1832397 4.43355705,21.716573 C4.38355705,22.0832397 4.31272371,22.391573 4.22105705,22.641573 C4.12939038,22.891573 3.95855705,23.041573 3.70855705,23.091573 C3.59189038,23.1249064 3.45855705,23.1499064 3.30855705,23.166573 C3.15855705,23.1832397 2.99189038,23.191573 2.80855705,23.191573 C2.54189038,23.191573 2.40855705,23.2582397 2.40855705,23.391573 C2.40855705,23.5582397 2.57522371,23.641573 2.90855705,23.641573 C3.15855705,23.641573 3.43772371,23.6332397 3.74605705,23.616573 C4.05439038,23.5999064 4.35022371,23.591573 4.63355705,23.591573 C4.93355705,23.5749064 5.20855705,23.566573 5.45855705,23.566573 L6.05855705,23.566573 C6.24189038,23.566573 6.50439038,23.5707397 6.84605705,23.579073 C7.18772371,23.5874064 7.55022371,23.6082397 7.93355705,23.641573 C8.30022371,23.6582397 8.64605705,23.6749064 8.97105705,23.691573 C9.29605705,23.7082397 9.53355705,23.716573 9.68355705,23.716573 Z M8.90855705,12.766573 C8.34189038,12.766573 7.95022371,12.741573 7.73355705,12.691573 C7.68355705,12.6749064 7.64189038,12.6499064 7.60855705,12.616573 C7.57522371,12.5832397 7.55855705,12.516573 7.55855705,12.416573 L7.55855705,6.24157303 C7.55855705,6.0082397 7.63355705,5.86657303 7.78355705,5.81657303 C7.91689038,5.7832397 8.04189038,5.76657303 8.15855705,5.76657303 L8.60855705,5.76657303 L8.60855705,5.76657303 C9.14189038,5.76657303 9.60439038,5.89157303 9.99605705,6.14157303 C10.3877237,6.39157303 10.7127237,6.70407303 10.971057,7.07907303 C11.2293904,7.45407303 11.421057,7.8707397 11.546057,8.32907303 C11.671057,8.78740637 11.733557,9.22490637 11.733557,9.64157303 C11.733557,10.8582397 11.3918904,11.741573 10.708557,12.291573 C10.4918904,12.4749064 10.2418904,12.5999064 9.95855705,12.666573 C9.67522371,12.7332397 9.32522371,12.766573 8.90855705,12.766573 Z M10.258557,22.591573 C9.97522371,22.591573 9.68355705,22.5749064 9.38355705,22.541573 C9.08355705,22.5082397 8.76689038,22.4249064 8.43355705,22.291573 C8.23355705,22.2082397 8.07522371,22.1124064 7.95855705,22.004073 C7.84189038,21.8957397 7.75439038,21.754073 7.69605705,21.579073 C7.63772371,21.404073 7.60022371,21.1832397 7.58355705,20.916573 C7.56689038,20.6499064 7.55855705,20.3082397 7.55855705,19.891573 L7.55855705,13.966573 C7.55855705,13.8499064 7.60855705,13.791573 7.70855705,13.791573 L8.20855705,13.791573 L8.20855705,13.791573 C8.35855705,13.791573 8.55022371,13.7999064 8.78355705,13.816573 C9.26689038,13.8499064 9.66689038,13.9124064 9.98355705,14.004073 C10.3002237,14.0957397 10.5918904,14.2332397 10.858557,14.416573 C11.3252237,14.7499064 11.7168904,15.1249064 12.033557,15.541573 C12.3502237,15.9582397 12.6002237,16.3874064 12.783557,16.829073 C12.9668904,17.2707397 13.096057,17.7124064 13.171057,18.154073 C13.246057,18.5957397 13.283557,19.0082397 13.283557,19.391573 C13.283557,20.041573 13.1793904,20.5749064 12.971057,20.991573 C12.7627237,21.4082397 12.5043904,21.7332397 12.196057,21.966573 C11.8877237,22.1999064 11.558557,22.3624064 11.208557,22.454073 C10.858557,22.5457397 10.5418904,22.591573 10.258557,22.591573 Z" id="path-1"></path>
        <filter x="-48.9%" y="-26.4%" width="197.7%" height="173.8%" filterUnits="objectBoundingBox" id="filter-2">
            <feOffset dx="0" dy="2" in="SourceAlpha" result="shadowOffsetOuter1"></feOffset>
            <feGaussianBlur stdDeviation="2" in="shadowOffsetOuter1" result="shadowBlurOuter1"></feGaussianBlur>
            <feColorMatrix values="0 0 0 0 0   0 0 0 0 0   0 0 0 0 0  0 0 0 0.5 0" type="matrix" in="shadowBlurOuter1"></feColorMatrix>
        </filter>
    </defs>
    <g id="Page-1" stroke="none" stroke-width="1" fill="none" fill-rule="evenodd">
        <g id="Group" transform="translate(0.000000, -5.000000)">
            <g id="arcadiaswx" transform="translate(1.000000, 0.000000)"></g>
            <g id="Booker&amp;CoLogo" transform="translate(0.000000, 5.000000)">
                <g id="Shape" fill="#000000">
                    <circle id="Oval" cx="16.0397287" cy="16.0397287" r="15.875969"></circle>
                    <circle id="White-Oval-Copy" stroke="#FFFFFF" stroke-width="2" cx="16.0397287" cy="16.0397287" r="13.8837209"></circle>
                </g>
                <g id="Font" transform="translate(6.000000, 1.000000)" fill-rule="nonzero">
                    <g id="B" transform="translate(0.966443, 0.258427)">
                        <use fill="black" fill-opacity="1" filter="url(#filter-2)" xlink:href="#path-1"></use>
                        <use fill="#FFFFFF" xlink:href="#path-1"></use>
                    </g>
                </g>
            </g>
        </g>
    </g>
</svg>